<?xml version="1.0" encoding="UTF-8"?>
<svg xmlns="http://www.w3.org/2000/svg" viewBox="0 0 512 512" role="img" aria-label="Achill">
  <title>Achill</title>
  <path d="M 362.16 255.02 C 357.04 283.26 369.46 299.97 365.17 321.80 C 360.88 343.64 352.80 378.80 336.43 386.02 C 320.06 393.23 291.94 366.16 266.95 365.10 C 241.96 364.05 211.38 386.57 186.48 379.66 C 161.58 372.76 125.76 343.20 117.57 323.67 C 109.39 304.14 138.25 287.26 137.39 262.49 C 136.52 237.71 105.19 198.54 112.40 175.02 C 119.60 151.50 156.42 131.75 180.62 121.35 C 204.83 110.95 232.80 108.24 257.63 112.61 C 282.46 116.99 306.57 140.97 329.61 147.60 C 352.64 154.23 390.42 134.50 395.84 152.40 C 401.27 170.31 367.27 226.79 362.16 255.02 Z" fill="currentColor"/>
</svg>
