<?xml version="1.0" encoding="UTF-8"?>
<svg xmlns="http://www.w3.org/2000/svg" viewBox="0 0 512 512" role="img" aria-label="Azoreyjar">
  <title>Azoreyjar</title>
  <path d="M 361.05 263.82 C 363.44 287.59 385.22 313.65 378.15 330.62 C 371.07 347.59 341.41 350.71 318.62 365.63 C 295.83 380.55 264.08 416.33 241.40 420.12 C 218.73 423.92 204.48 399.85 182.58 388.39 C 160.69 376.92 121.52 373.51 110.05 351.33 C 98.59 329.14 108.86 280.74 113.79 255.26 C 118.72 229.77 125.53 216.60 139.64 198.43 C 153.75 180.26 181.86 165.30 198.44 146.21 C 215.02 127.13 216.87 84.43 239.12 83.91 C 261.36 83.39 311.14 125.76 331.92 143.10 C 352.69 160.45 358.93 167.88 363.79 188.00 C 368.64 208.12 358.66 240.06 361.05 263.82 Z" fill="currentColor"/>
</svg>
