<?xml version="1.0" encoding="UTF-8"?>
<svg xmlns="http://www.w3.org/2000/svg" viewBox="0 0 512 512" role="img" aria-label="Bermúda">
  <title>Bermúda</title>
  <path d="M 434.88 236.10 C 432.26 254.17 375.77 285.04 359.21 307.62 C 342.66 330.21 353.51 352.66 335.58 371.61 C 317.64 390.56 273.44 421.89 251.62 421.32 C 229.79 420.76 227.56 380.41 204.65 368.20 C 181.74 356.00 131.66 365.93 114.15 348.11 C 96.65 330.28 94.30 284.94 99.60 261.26 C 104.90 237.57 130.87 231.13 145.95 206.00 C 161.04 180.88 170.74 123.94 190.12 110.50 C 209.51 97.06 239.35 125.81 262.27 125.39 C 285.18 124.96 308.81 95.66 327.59 107.96 C 346.37 120.26 357.07 177.83 374.95 199.19 C 392.83 220.55 437.51 218.02 434.88 236.10 Z" fill="currentColor"/>
</svg>
