<?xml version="1.0" encoding="UTF-8"?>
<svg xmlns="http://www.w3.org/2000/svg" viewBox="0 0 512 512" role="img" aria-label="Grænhöfðaeyjar (Cabo Verde)">
  <title>Grænhöfðaeyjar (Cabo Verde)</title>
  <path d="M 417.06 262.89 C 417.63 284.43 369.40 306.23 357.85 326.53 C 346.31 346.83 365.85 378.60 347.79 384.71 C 329.73 390.83 278.96 359.44 249.52 363.21 C 220.07 366.99 191.96 411.73 171.12 407.35 C 150.27 402.98 140.27 363.38 124.45 336.97 C 108.62 310.57 76.99 273.72 76.14 248.91 C 75.28 224.11 101.27 207.45 119.32 188.15 C 137.37 168.86 162.08 149.76 184.44 133.15 C 206.80 116.54 228.01 90.51 253.50 88.49 C 278.99 86.46 320.59 102.87 337.41 121.00 C 354.22 139.14 341.10 173.66 354.38 197.31 C 367.65 220.96 416.48 241.36 417.06 262.89 Z" fill="currentColor"/>
</svg>
