<?xml version="1.0" encoding="UTF-8"?>
<svg xmlns="http://www.w3.org/2000/svg" viewBox="0 0 512 512" role="img" aria-label="Kanaríeyjar">
  <title>Kanaríeyjar</title>
  <path d="M 414.54 245.79 C 418.67 265.69 393.85 308.70 379.12 327.86 C 364.40 347.01 345.53 353.11 326.19 360.72 C 306.84 368.34 283.72 370.03 263.03 373.52 C 242.35 377.02 224.77 386.02 202.07 381.68 C 179.37 377.35 136.28 369.23 126.85 347.52 C 117.42 325.82 141.39 274.32 145.50 251.43 C 149.60 228.55 142.45 231.30 151.48 210.22 C 160.51 189.14 179.76 141.37 199.67 124.95 C 219.58 108.53 248.35 114.23 270.93 111.69 C 293.51 109.15 321.26 93.61 335.17 109.74 C 349.07 125.87 341.13 185.79 354.36 208.47 C 367.59 231.14 410.42 225.89 414.54 245.79 Z" fill="currentColor"/>
</svg>
