<?xml version="1.0" encoding="UTF-8"?>
<svg xmlns="http://www.w3.org/2000/svg" viewBox="0 0 512 512" role="img" aria-label="Falklandseyjar">
  <title>Falklandseyjar</title>
  <path d="M 391.23 240.88 C 393.44 263.86 412.99 309.85 401.02 327.01 C 389.05 344.18 345.51 333.09 319.41 343.88 C 293.32 354.68 269.15 383.78 244.46 391.79 C 219.78 399.80 189.69 404.96 171.30 391.95 C 152.91 378.93 141.57 338.44 134.13 313.70 C 126.68 288.96 127.22 263.06 126.62 243.50 C 126.02 223.93 121.71 214.47 130.52 196.32 C 139.33 178.17 160.26 149.46 179.46 134.61 C 198.67 119.76 222.71 107.67 245.72 107.20 C 268.74 106.73 293.91 118.12 317.58 131.77 C 341.25 145.43 375.48 170.95 387.76 189.13 C 400.04 207.32 389.02 217.90 391.23 240.88 Z" fill="currentColor"/>
</svg>
