<?xml version="1.0" encoding="UTF-8"?>
<svg xmlns="http://www.w3.org/2000/svg" viewBox="0 0 512 512" role="img" aria-label="Shetland">
  <title>Shetland</title>
  <path d="M 410.41 273.46 C 412.64 289.11 381.98 294.68 367.10 307.23 C 352.21 319.79 339.97 334.95 321.10 348.78 C 302.22 362.60 276.54 381.48 253.84 390.19 C 231.14 398.89 200.48 412.46 184.90 400.99 C 169.32 389.52 175.04 347.45 160.36 321.36 C 145.68 295.27 101.05 266.52 96.81 244.45 C 92.57 222.38 120.78 211.37 134.93 188.93 C 149.07 166.48 159.86 120.55 181.69 109.79 C 203.52 99.03 241.48 126.30 265.90 124.36 C 290.33 122.42 313.61 83.30 328.24 98.13 C 342.87 112.96 339.99 184.10 353.69 213.32 C 367.38 242.54 408.17 257.80 410.41 273.46 Z" fill="currentColor"/>
</svg>
