<?xml version="1.0" encoding="UTF-8"?>
<svg xmlns="http://www.w3.org/2000/svg" viewBox="0 0 512 512" role="img" aria-label="Madeira">
  <title>Madeira</title>
  <path d="M 378.16 261.70 C 381.05 288.10 391.12 321.42 380.64 341.95 C 370.16 362.48 336.33 377.87 315.29 384.87 C 294.24 391.86 276.66 385.89 254.39 383.91 C 232.11 381.93 202.23 380.22 181.64 372.97 C 161.05 365.73 136.69 358.42 130.87 340.44 C 125.05 322.46 143.73 290.00 146.73 265.08 C 149.73 240.16 142.06 210.17 148.88 190.93 C 155.70 171.69 168.65 167.17 187.64 149.64 C 206.64 132.10 238.79 88.27 262.86 85.73 C 286.93 83.19 315.32 118.09 332.07 134.39 C 348.81 150.70 355.63 162.37 363.32 183.58 C 371.00 204.80 375.27 235.31 378.16 261.70 Z" fill="currentColor"/>
</svg>
