<?xml version="1.0" encoding="UTF-8"?>
<svg xmlns="http://www.w3.org/2000/svg" viewBox="0 0 512 512" role="img" aria-label="Grænhöfðaeyjar (Mindelo)">
  <title>Grænhöfðaeyjar (Mindelo)</title>
  <path d="M 376.83 248.36 C 381.14 277.37 408.60 344.41 397.93 362.40 C 387.27 380.40 337.92 347.55 312.85 356.32 C 287.78 365.09 269.51 414.27 247.53 415.01 C 225.55 415.76 202.21 375.49 180.96 360.79 C 159.70 346.08 137.29 342.73 119.99 326.78 C 102.70 310.82 70.96 288.99 77.17 265.07 C 83.39 241.14 135.39 203.07 157.30 183.22 C 179.22 163.37 190.27 154.27 208.69 145.97 C 227.10 137.67 252.25 132.80 267.80 133.43 C 283.35 134.06 284.61 140.59 301.98 149.75 C 319.36 158.90 359.59 171.94 372.06 188.38 C 384.53 204.81 372.52 219.36 376.83 248.36 Z" fill="currentColor"/>
</svg>
