<?xml version="1.0" encoding="UTF-8"?>
<svg xmlns="http://www.w3.org/2000/svg" viewBox="0 0 512 512" role="img" aria-label="Orkney">
  <title>Orkney</title>
  <path d="M 398.29 251.99 C 402.12 273.62 379.75 303.84 367.37 320.12 C 354.99 336.40 343.43 331.09 324.01 349.66 C 304.59 368.22 274.77 421.17 250.85 431.50 C 226.94 441.82 196.73 430.34 180.52 411.62 C 164.31 392.90 170.75 347.82 153.60 319.17 C 136.45 290.51 79.21 260.52 77.60 239.71 C 75.99 218.91 124.04 207.29 143.93 194.33 C 163.81 181.38 177.39 170.37 196.91 161.96 C 216.43 153.55 237.72 148.53 261.05 143.89 C 284.37 139.25 322.97 126.38 336.86 134.11 C 350.75 141.85 334.15 170.66 344.39 190.30 C 354.63 209.95 394.46 230.35 398.29 251.99 Z" fill="currentColor"/>
</svg>
