<?xml version="1.0" encoding="UTF-8"?>
<svg xmlns="http://www.w3.org/2000/svg" viewBox="0 0 512 512" role="img" aria-label="São Tomé og Príncipe">
  <title>São Tomé og Príncipe</title>
  <path d="M 387.72 270.56 C 389.27 288.59 374.33 291.96 363.44 306.66 C 352.55 321.35 342.63 345.89 322.38 358.74 C 302.12 371.59 267.00 380.70 241.92 383.76 C 216.84 386.82 191.47 382.96 171.92 377.09 C 152.37 371.23 128.27 369.52 124.61 348.58 C 120.96 327.65 145.93 278.38 149.99 251.46 C 154.05 224.55 143.27 209.50 148.95 187.10 C 154.63 164.69 167.64 132.29 184.08 117.04 C 200.52 101.80 226.74 92.79 247.61 95.64 C 268.48 98.49 291.53 117.01 309.29 134.15 C 327.05 151.29 341.09 175.76 354.16 198.50 C 367.23 221.23 386.17 252.54 387.72 270.56 Z" fill="currentColor"/>
</svg>
