<?xml version="1.0" encoding="UTF-8"?>
<svg xmlns="http://www.w3.org/2000/svg" viewBox="0 0 512 512" role="img" aria-label="Vestureyjar við Írland">
  <title>Vestureyjar við Írland</title>
  <path d="M 428.11 251.14 C 428.91 274.41 394.73 292.46 379.06 314.64 C 363.39 336.83 352.89 375.12 334.09 384.26 C 315.29 393.41 289.08 369.71 266.27 369.51 C 243.46 369.30 220.29 391.48 197.24 383.04 C 174.18 374.59 146.84 341.60 127.96 318.81 C 109.07 296.02 82.69 270.09 83.92 246.30 C 85.16 222.50 115.27 194.13 135.36 176.04 C 155.44 157.96 181.84 146.05 204.42 137.78 C 227.00 129.51 251.95 123.49 270.83 126.42 C 289.70 129.35 300.43 147.26 317.66 155.37 C 334.90 163.47 355.83 159.09 374.24 175.05 C 392.65 191.01 427.30 227.88 428.11 251.14 Z" fill="currentColor"/>
</svg>
